<mxfile host="app.diagrams.net" agent="Mozilla/5.0 (Windows NT 10.0; Win64; x64) AppleWebKit/537.36 (KHTML, like Gecko) Chrome/134.0.0.0 Safari/537.36 OPR/119.0.0.0" version="27.1.4">
  <diagram name="Page-1" id="xl2yND0-FTTvJk6ga8id">
    <mxGraphModel grid="1" page="1" gridSize="10" guides="1" tooltips="1" connect="1" arrows="1" fold="1" pageScale="1" pageWidth="850" pageHeight="1100" math="0" shadow="0">
      <root>
        <mxCell id="0" />
        <mxCell id="1" parent="0" />
        <mxCell id="1sCQcPRuHCUJQ01VkUmD-18" style="edgeStyle=orthogonalEdgeStyle;rounded=0;orthogonalLoop=1;jettySize=auto;html=1;exitX=0.5;exitY=1;exitDx=0;exitDy=0;entryX=0.5;entryY=0;entryDx=0;entryDy=0;" edge="1" parent="1" source="huLHMLjECL3ZLrGT6dhq-1" target="1sCQcPRuHCUJQ01VkUmD-17">
          <mxGeometry relative="1" as="geometry">
            <mxPoint x="480" y="150" as="sourcePoint" />
          </mxGeometry>
        </mxCell>
        <mxCell id="1sCQcPRuHCUJQ01VkUmD-19" style="edgeStyle=orthogonalEdgeStyle;rounded=0;orthogonalLoop=1;jettySize=auto;html=1;exitX=0;exitY=0.5;exitDx=0;exitDy=0;entryX=0.5;entryY=0;entryDx=0;entryDy=0;" edge="1" parent="1" source="1sCQcPRuHCUJQ01VkUmD-17" target="huLHMLjECL3ZLrGT6dhq-15">
          <mxGeometry relative="1" as="geometry">
            <mxPoint x="310" y="370" as="targetPoint" />
          </mxGeometry>
        </mxCell>
        <mxCell id="1sCQcPRuHCUJQ01VkUmD-21" style="edgeStyle=orthogonalEdgeStyle;rounded=0;orthogonalLoop=1;jettySize=auto;html=1;exitX=0.5;exitY=1;exitDx=0;exitDy=0;entryX=0.5;entryY=0;entryDx=0;entryDy=0;" edge="1" parent="1" source="1sCQcPRuHCUJQ01VkUmD-17" target="huLHMLjECL3ZLrGT6dhq-16">
          <mxGeometry relative="1" as="geometry">
            <mxPoint x="480" y="340" as="targetPoint" />
          </mxGeometry>
        </mxCell>
        <mxCell id="1sCQcPRuHCUJQ01VkUmD-69" style="edgeStyle=orthogonalEdgeStyle;rounded=0;orthogonalLoop=1;jettySize=auto;html=1;exitX=1;exitY=0.5;exitDx=0;exitDy=0;entryX=0.5;entryY=0;entryDx=0;entryDy=0;" edge="1" parent="1" source="1sCQcPRuHCUJQ01VkUmD-17" target="huLHMLjECL3ZLrGT6dhq-17">
          <mxGeometry relative="1" as="geometry">
            <mxPoint x="650" y="340" as="targetPoint" />
          </mxGeometry>
        </mxCell>
        <mxCell id="1sCQcPRuHCUJQ01VkUmD-17" value="" style="shape=hexagon;perimeter=hexagonPerimeter2;whiteSpace=wrap;html=1;fixedSize=1;" vertex="1" parent="1">
          <mxGeometry x="420" y="190" width="120" height="80" as="geometry" />
        </mxCell>
        <mxCell id="1sCQcPRuHCUJQ01VkUmD-66" style="edgeStyle=orthogonalEdgeStyle;rounded=0;orthogonalLoop=1;jettySize=auto;html=1;exitX=1;exitY=0.5;exitDx=0;exitDy=0;entryX=0.5;entryY=0;entryDx=0;entryDy=0;" edge="1" parent="1" source="huLHMLjECL3ZLrGT6dhq-26" target="huLHMLjECL3ZLrGT6dhq-24">
          <mxGeometry relative="1" as="geometry">
            <mxPoint x="1400" y="550" as="sourcePoint" />
            <mxPoint x="1420" y="1100" as="targetPoint" />
          </mxGeometry>
        </mxCell>
        <mxCell id="1sCQcPRuHCUJQ01VkUmD-33" style="edgeStyle=orthogonalEdgeStyle;rounded=0;orthogonalLoop=1;jettySize=auto;html=1;exitX=1;exitY=0.5;exitDx=0;exitDy=0;entryX=0;entryY=0.5;entryDx=0;entryDy=0;" edge="1" parent="1" source="huLHMLjECL3ZLrGT6dhq-25" target="huLHMLjECL3ZLrGT6dhq-26">
          <mxGeometry relative="1" as="geometry">
            <mxPoint x="1140.0000000000005" y="580.0000000000002" as="sourcePoint" />
            <mxPoint x="1240" y="550" as="targetPoint" />
          </mxGeometry>
        </mxCell>
        <mxCell id="1sCQcPRuHCUJQ01VkUmD-32" style="edgeStyle=orthogonalEdgeStyle;rounded=0;orthogonalLoop=1;jettySize=auto;html=1;exitX=1;exitY=0.5;exitDx=0;exitDy=0;entryX=0;entryY=0.5;entryDx=0;entryDy=0;" edge="1" parent="1" source="huLHMLjECL3ZLrGT6dhq-17" target="huLHMLjECL3ZLrGT6dhq-25">
          <mxGeometry relative="1" as="geometry">
            <mxPoint x="920" y="570" as="sourcePoint" />
            <mxPoint x="1020" y="580.0000000000002" as="targetPoint" />
          </mxGeometry>
        </mxCell>
        <mxCell id="1sCQcPRuHCUJQ01VkUmD-41" style="edgeStyle=orthogonalEdgeStyle;rounded=0;orthogonalLoop=1;jettySize=auto;html=1;exitX=1;exitY=0.5;exitDx=0;exitDy=0;entryX=0;entryY=0.5;entryDx=0;entryDy=0;" edge="1" parent="1" source="huLHMLjECL3ZLrGT6dhq-32" target="huLHMLjECL3ZLrGT6dhq-20">
          <mxGeometry relative="1" as="geometry">
            <mxPoint x="915" y="1169.9999999999998" as="sourcePoint" />
            <mxPoint x="965.0000000000002" y="1190.0000000000002" as="targetPoint" />
          </mxGeometry>
        </mxCell>
        <mxCell id="1sCQcPRuHCUJQ01VkUmD-38" value="Ementa" style="shape=ext;margin=3;double=1;whiteSpace=wrap;html=1;align=center;strokeWidth=3;fillColor=#1ba1e2;fontColor=#ffffff;strokeColor=light-dark(#006EAF,#000000);" vertex="1" parent="1">
          <mxGeometry x="1200" y="1130" width="100" height="40" as="geometry" />
        </mxCell>
        <mxCell id="1sCQcPRuHCUJQ01VkUmD-40" style="edgeStyle=orthogonalEdgeStyle;rounded=0;orthogonalLoop=1;jettySize=auto;html=1;exitX=1;exitY=0.5;exitDx=0;exitDy=0;entryX=0;entryY=0.5;entryDx=0;entryDy=0;" edge="1" parent="1" source="huLHMLjECL3ZLrGT6dhq-20" target="1sCQcPRuHCUJQ01VkUmD-38">
          <mxGeometry relative="1" as="geometry">
            <mxPoint x="1170" y="1150" as="sourcePoint" />
          </mxGeometry>
        </mxCell>
        <mxCell id="1sCQcPRuHCUJQ01VkUmD-44" style="edgeStyle=orthogonalEdgeStyle;rounded=0;orthogonalLoop=1;jettySize=auto;html=1;exitX=1;exitY=0.5;exitDx=0;exitDy=0;entryX=0;entryY=0.5;entryDx=0;entryDy=0;" edge="1" parent="1" source="huLHMLjECL3ZLrGT6dhq-23" target="huLHMLjECL3ZLrGT6dhq-28">
          <mxGeometry relative="1" as="geometry">
            <mxPoint x="1170" y="1240" as="sourcePoint" />
            <mxPoint x="1200" y="1240" as="targetPoint" />
          </mxGeometry>
        </mxCell>
        <mxCell id="1sCQcPRuHCUJQ01VkUmD-48" style="edgeStyle=orthogonalEdgeStyle;rounded=0;orthogonalLoop=1;jettySize=auto;html=1;exitX=0;exitY=1;exitDx=0;exitDy=0;entryX=0.5;entryY=0;entryDx=0;entryDy=0;" edge="1" parent="1" source="huLHMLjECL3ZLrGT6dhq-31" target="huLHMLjECL3ZLrGT6dhq-30">
          <mxGeometry relative="1" as="geometry">
            <mxPoint x="834.9999999999998" y="1409.9999999999998" as="sourcePoint" />
            <mxPoint x="835" y="1500" as="targetPoint" />
          </mxGeometry>
        </mxCell>
        <mxCell id="1sCQcPRuHCUJQ01VkUmD-51" style="edgeStyle=orthogonalEdgeStyle;rounded=0;orthogonalLoop=1;jettySize=auto;html=1;exitX=0.5;exitY=1;exitDx=0;exitDy=0;entryX=0.5;entryY=0;entryDx=0;entryDy=0;" edge="1" parent="1" target="huLHMLjECL3ZLrGT6dhq-32" source="huLHMLjECL3ZLrGT6dhq-18">
          <mxGeometry relative="1" as="geometry">
            <mxPoint x="835" y="930" as="sourcePoint" />
            <mxPoint x="835" y="1029.9999999999998" as="targetPoint" />
          </mxGeometry>
        </mxCell>
        <mxCell id="1sCQcPRuHCUJQ01VkUmD-50" style="edgeStyle=orthogonalEdgeStyle;rounded=0;orthogonalLoop=1;jettySize=auto;html=1;exitX=0.5;exitY=1;exitDx=0;exitDy=0;entryX=0.5;entryY=0;entryDx=0;entryDy=0;" edge="1" parent="1" source="huLHMLjECL3ZLrGT6dhq-17" target="huLHMLjECL3ZLrGT6dhq-18">
          <mxGeometry relative="1" as="geometry">
            <mxPoint x="840" y="790" as="targetPoint" />
            <mxPoint x="839.9999999999998" y="560" as="sourcePoint" />
          </mxGeometry>
        </mxCell>
        <mxCell id="1sCQcPRuHCUJQ01VkUmD-53" style="rounded=0;orthogonalLoop=1;jettySize=auto;html=1;exitX=0;exitY=0.5;exitDx=0;exitDy=0;entryX=1;entryY=0;entryDx=0;entryDy=0;" edge="1" parent="1" source="huLHMLjECL3ZLrGT6dhq-19" target="huLHMLjECL3ZLrGT6dhq-32">
          <mxGeometry relative="1" as="geometry">
            <mxPoint x="964.9999999999998" y="900" as="sourcePoint" />
            <mxPoint x="915" y="1029.9999999999998" as="targetPoint" />
          </mxGeometry>
        </mxCell>
        <mxCell id="1sCQcPRuHCUJQ01VkUmD-54" style="rounded=0;orthogonalLoop=1;jettySize=auto;html=1;exitX=1;exitY=0.5;exitDx=0;exitDy=0;entryX=1;entryY=0;entryDx=0;entryDy=0;" edge="1" parent="1" source="huLHMLjECL3ZLrGT6dhq-19" target="huLHMLjECL3ZLrGT6dhq-32">
          <mxGeometry relative="1" as="geometry">
            <mxPoint x="1085" y="900" as="sourcePoint" />
            <mxPoint x="915" y="1029.9999999999998" as="targetPoint" />
          </mxGeometry>
        </mxCell>
        <mxCell id="1sCQcPRuHCUJQ01VkUmD-67" style="edgeStyle=orthogonalEdgeStyle;rounded=0;orthogonalLoop=1;jettySize=auto;html=1;exitX=0.5;exitY=1;exitDx=0;exitDy=0;entryX=1;entryY=0.5;entryDx=0;entryDy=0;" edge="1" parent="1" source="huLHMLjECL3ZLrGT6dhq-24" target="huLHMLjECL3ZLrGT6dhq-30">
          <mxGeometry relative="1" as="geometry">
            <mxPoint x="1414.9999999999995" y="1350" as="sourcePoint" />
            <mxPoint x="915" y="1530" as="targetPoint" />
          </mxGeometry>
        </mxCell>
        <mxCell id="huLHMLjECL3ZLrGT6dhq-56" style="edgeStyle=orthogonalEdgeStyle;rounded=0;orthogonalLoop=1;jettySize=auto;html=1;exitX=0;exitY=0.5;exitDx=0;exitDy=0;entryX=1;entryY=0.5;entryDx=0;entryDy=0;" edge="1" parent="1" source="huLHMLjECL3ZLrGT6dhq-1" target="huLHMLjECL3ZLrGT6dhq-39">
          <mxGeometry relative="1" as="geometry" />
        </mxCell>
        <mxCell id="huLHMLjECL3ZLrGT6dhq-1" value="UsuÃ¡rio" style="whiteSpace=wrap;html=1;align=center;fillColor=#1ba1e2;fontColor=#ffffff;strokeColor=light-dark(#000000,#000000);fontStyle=1;gradientColor=none;strokeWidth=5;" vertex="1" parent="1">
          <mxGeometry x="430" y="60" width="100" height="40" as="geometry" />
        </mxCell>
        <mxCell id="huLHMLjECL3ZLrGT6dhq-8" style="edgeStyle=orthogonalEdgeStyle;rounded=0;orthogonalLoop=1;jettySize=auto;html=1;exitX=1;exitY=1;exitDx=0;exitDy=0;entryX=0;entryY=0.5;entryDx=0;entryDy=0;" edge="1" parent="1" source="huLHMLjECL3ZLrGT6dhq-15" target="huLHMLjECL3ZLrGT6dhq-7">
          <mxGeometry relative="1" as="geometry">
            <mxPoint x="359" y="560" as="sourcePoint" />
          </mxGeometry>
        </mxCell>
        <mxCell id="huLHMLjECL3ZLrGT6dhq-10" style="edgeStyle=orthogonalEdgeStyle;rounded=0;orthogonalLoop=1;jettySize=auto;html=1;exitX=0.5;exitY=1;exitDx=0;exitDy=0;entryX=0.5;entryY=0;entryDx=0;entryDy=0;" edge="1" parent="1" source="huLHMLjECL3ZLrGT6dhq-16" target="huLHMLjECL3ZLrGT6dhq-7">
          <mxGeometry relative="1" as="geometry">
            <mxPoint x="479" y="560" as="sourcePoint" />
          </mxGeometry>
        </mxCell>
        <mxCell id="huLHMLjECL3ZLrGT6dhq-9" style="edgeStyle=orthogonalEdgeStyle;rounded=0;orthogonalLoop=1;jettySize=auto;html=1;exitX=0;exitY=1;exitDx=0;exitDy=0;entryX=1;entryY=0.5;entryDx=0;entryDy=0;" edge="1" parent="1" source="huLHMLjECL3ZLrGT6dhq-17" target="huLHMLjECL3ZLrGT6dhq-7">
          <mxGeometry relative="1" as="geometry">
            <mxPoint x="598.9999999999998" y="560" as="sourcePoint" />
          </mxGeometry>
        </mxCell>
        <mxCell id="huLHMLjECL3ZLrGT6dhq-82" style="edgeStyle=orthogonalEdgeStyle;rounded=0;orthogonalLoop=1;jettySize=auto;html=1;exitX=0;exitY=1;exitDx=0;exitDy=0;entryX=0.5;entryY=0;entryDx=0;entryDy=0;" edge="1" parent="1" source="huLHMLjECL3ZLrGT6dhq-7" target="huLHMLjECL3ZLrGT6dhq-79">
          <mxGeometry relative="1" as="geometry" />
        </mxCell>
        <mxCell id="huLHMLjECL3ZLrGT6dhq-7" value="Avisos" style="shape=rhombus;perimeter=rhombusPerimeter;whiteSpace=wrap;html=1;align=center;fillColor=#60a917;fontColor=#ffffff;strokeColor=light-dark(#2D7600,#000000);strokeWidth=5;" vertex="1" parent="1">
          <mxGeometry x="419" y="630" width="120" height="60" as="geometry" />
        </mxCell>
        <mxCell id="huLHMLjECL3ZLrGT6dhq-72" style="edgeStyle=orthogonalEdgeStyle;rounded=0;orthogonalLoop=1;jettySize=auto;html=1;exitX=1;exitY=0.5;exitDx=0;exitDy=0;entryX=0;entryY=0.5;entryDx=0;entryDy=0;" edge="1" parent="1" source="huLHMLjECL3ZLrGT6dhq-14" target="huLHMLjECL3ZLrGT6dhq-68">
          <mxGeometry relative="1" as="geometry" />
        </mxCell>
        <mxCell id="huLHMLjECL3ZLrGT6dhq-14" value="Unidade Escolar" style="whiteSpace=wrap;html=1;align=center;fillColor=#1ba1e2;fontColor=#ffffff;strokeColor=light-dark(#000000,#000000);fontStyle=1;gradientColor=none;strokeWidth=5;" vertex="1" parent="1">
          <mxGeometry y="780" width="100" height="40" as="geometry" />
        </mxCell>
        <mxCell id="huLHMLjECL3ZLrGT6dhq-36" style="edgeStyle=orthogonalEdgeStyle;rounded=0;orthogonalLoop=1;jettySize=auto;html=1;exitX=0.5;exitY=1;exitDx=0;exitDy=0;entryX=0;entryY=0.5;entryDx=0;entryDy=0;" edge="1" parent="1" source="huLHMLjECL3ZLrGT6dhq-15" target="huLHMLjECL3ZLrGT6dhq-33">
          <mxGeometry relative="1" as="geometry" />
        </mxCell>
        <mxCell id="huLHMLjECL3ZLrGT6dhq-58" style="edgeStyle=orthogonalEdgeStyle;rounded=0;orthogonalLoop=1;jettySize=auto;html=1;exitX=0;exitY=1;exitDx=0;exitDy=0;entryX=1;entryY=0.5;entryDx=0;entryDy=0;" edge="1" parent="1" source="huLHMLjECL3ZLrGT6dhq-15" target="huLHMLjECL3ZLrGT6dhq-50">
          <mxGeometry relative="1" as="geometry" />
        </mxCell>
        <mxCell id="huLHMLjECL3ZLrGT6dhq-114" style="edgeStyle=orthogonalEdgeStyle;rounded=0;orthogonalLoop=1;jettySize=auto;html=1;exitX=0.25;exitY=1;exitDx=0;exitDy=0;entryX=0.5;entryY=0;entryDx=0;entryDy=0;" edge="1" parent="1" source="huLHMLjECL3ZLrGT6dhq-15" target="huLHMLjECL3ZLrGT6dhq-112">
          <mxGeometry relative="1" as="geometry" />
        </mxCell>
        <mxCell id="huLHMLjECL3ZLrGT6dhq-123" style="edgeStyle=orthogonalEdgeStyle;rounded=0;orthogonalLoop=1;jettySize=auto;html=1;exitX=0;exitY=0.5;exitDx=0;exitDy=0;" edge="1" parent="1" source="huLHMLjECL3ZLrGT6dhq-15" target="huLHMLjECL3ZLrGT6dhq-121">
          <mxGeometry relative="1" as="geometry" />
        </mxCell>
        <mxCell id="huLHMLjECL3ZLrGT6dhq-15" value="Aluno" style="whiteSpace=wrap;html=1;align=center;fillColor=#1ba1e2;fontColor=#ffffff;strokeColor=light-dark(#000000,#000000);fontStyle=1;gradientColor=none;strokeWidth=5;" vertex="1" parent="1">
          <mxGeometry x="290" y="510" width="100" height="40" as="geometry" />
        </mxCell>
        <mxCell id="huLHMLjECL3ZLrGT6dhq-16" value="FuncionÃ¡rio" style="whiteSpace=wrap;html=1;align=center;fillColor=#1ba1e2;fontColor=#ffffff;strokeColor=light-dark(#000000,#000000);fontStyle=1;gradientColor=none;strokeWidth=5;" vertex="1" parent="1">
          <mxGeometry x="429" y="510" width="100" height="40" as="geometry" />
        </mxCell>
        <mxCell id="huLHMLjECL3ZLrGT6dhq-35" style="edgeStyle=orthogonalEdgeStyle;rounded=0;orthogonalLoop=1;jettySize=auto;html=1;exitX=0.25;exitY=1;exitDx=0;exitDy=0;entryX=0.5;entryY=0;entryDx=0;entryDy=0;" edge="1" parent="1" source="huLHMLjECL3ZLrGT6dhq-17" target="huLHMLjECL3ZLrGT6dhq-33">
          <mxGeometry relative="1" as="geometry" />
        </mxCell>
        <mxCell id="huLHMLjECL3ZLrGT6dhq-57" style="edgeStyle=orthogonalEdgeStyle;rounded=0;orthogonalLoop=1;jettySize=auto;html=1;exitX=1;exitY=1;exitDx=0;exitDy=0;entryX=0;entryY=0.5;entryDx=0;entryDy=0;" edge="1" parent="1" source="huLHMLjECL3ZLrGT6dhq-17" target="huLHMLjECL3ZLrGT6dhq-52">
          <mxGeometry relative="1" as="geometry">
            <mxPoint x="890.0000000000118" y="590" as="targetPoint" />
          </mxGeometry>
        </mxCell>
        <mxCell id="huLHMLjECL3ZLrGT6dhq-124" style="edgeStyle=orthogonalEdgeStyle;rounded=0;orthogonalLoop=1;jettySize=auto;html=1;exitX=0.75;exitY=0;exitDx=0;exitDy=0;entryX=0;entryY=0.5;entryDx=0;entryDy=0;" edge="1" parent="1" source="huLHMLjECL3ZLrGT6dhq-17" target="huLHMLjECL3ZLrGT6dhq-121">
          <mxGeometry relative="1" as="geometry">
            <Array as="points">
              <mxPoint x="835" y="-50" />
              <mxPoint x="-220" y="-50" />
              <mxPoint x="-220" y="800" />
            </Array>
          </mxGeometry>
        </mxCell>
        <mxCell id="huLHMLjECL3ZLrGT6dhq-17" value="Professor" style="whiteSpace=wrap;html=1;align=center;fillColor=#1ba1e2;fontColor=#ffffff;strokeColor=light-dark(#000000,#000000);fontStyle=1;gradientColor=none;strokeWidth=5;" vertex="1" parent="1">
          <mxGeometry x="760" y="510" width="100" height="40" as="geometry" />
        </mxCell>
        <mxCell id="huLHMLjECL3ZLrGT6dhq-18" value="Ministra" style="shape=rhombus;perimeter=rhombusPerimeter;whiteSpace=wrap;html=1;align=center;fillColor=#60a917;fontColor=#ffffff;strokeColor=light-dark(#2D7600,#000000);strokeWidth=5;" vertex="1" parent="1">
          <mxGeometry x="775" y="870" width="120" height="60" as="geometry" />
        </mxCell>
        <mxCell id="huLHMLjECL3ZLrGT6dhq-19" value="PrÃ©-Requisito" style="shape=rhombus;perimeter=rhombusPerimeter;whiteSpace=wrap;html=1;align=center;fillColor=#60a917;fontColor=#ffffff;strokeColor=light-dark(#2D7600,#000000);strokeWidth=5;" vertex="1" parent="1">
          <mxGeometry x="965" y="870" width="120" height="60" as="geometry" />
        </mxCell>
        <mxCell id="huLHMLjECL3ZLrGT6dhq-20" value="Possui" style="shape=rhombus;perimeter=rhombusPerimeter;whiteSpace=wrap;html=1;align=center;fillColor=#60a917;fontColor=#ffffff;strokeColor=light-dark(#2D7600,#000000);strokeWidth=5;" vertex="1" parent="1">
          <mxGeometry x="1050" y="1120" width="120" height="60" as="geometry" />
        </mxCell>
        <mxCell id="huLHMLjECL3ZLrGT6dhq-23" value="Compor" style="shape=rhombus;perimeter=rhombusPerimeter;whiteSpace=wrap;html=1;align=center;fillColor=#60a917;fontColor=#ffffff;strokeColor=light-dark(#2D7600,#000000);strokeWidth=5;" vertex="1" parent="1">
          <mxGeometry x="1050" y="1210" width="120" height="60" as="geometry" />
        </mxCell>
        <mxCell id="huLHMLjECL3ZLrGT6dhq-24" value="Possui" style="shape=rhombus;perimeter=rhombusPerimeter;whiteSpace=wrap;html=1;align=center;fillColor=#60a917;fontColor=#ffffff;strokeColor=light-dark(#2D7600,#000000);strokeWidth=5;" vertex="1" parent="1">
          <mxGeometry x="1360" y="1210" width="120" height="60" as="geometry" />
        </mxCell>
        <mxCell id="huLHMLjECL3ZLrGT6dhq-25" value="Chefia" style="shape=rhombus;perimeter=rhombusPerimeter;whiteSpace=wrap;html=1;align=center;fillColor=#60a917;fontColor=#ffffff;strokeColor=light-dark(#2D7600,#000000);strokeWidth=5;" vertex="1" parent="1">
          <mxGeometry x="1030" y="500" width="120" height="60" as="geometry" />
        </mxCell>
        <mxCell id="huLHMLjECL3ZLrGT6dhq-77" style="edgeStyle=orthogonalEdgeStyle;rounded=0;orthogonalLoop=1;jettySize=auto;html=1;exitX=0.5;exitY=1;exitDx=0;exitDy=0;entryX=0.5;entryY=0;entryDx=0;entryDy=0;" edge="1" parent="1" source="huLHMLjECL3ZLrGT6dhq-26" target="huLHMLjECL3ZLrGT6dhq-76">
          <mxGeometry relative="1" as="geometry" />
        </mxCell>
        <mxCell id="huLHMLjECL3ZLrGT6dhq-26" value="Departamento" style="whiteSpace=wrap;html=1;align=center;fillColor=#1ba1e2;fontColor=#ffffff;strokeColor=light-dark(#000000,#000000);fontStyle=1;gradientColor=none;strokeWidth=5;" vertex="1" parent="1">
          <mxGeometry x="1270" y="510" width="100" height="40" as="geometry" />
        </mxCell>
        <mxCell id="huLHMLjECL3ZLrGT6dhq-28" value="Turma" style="shape=ext;margin=3;double=1;whiteSpace=wrap;html=1;align=center;strokeWidth=3;fillColor=#1ba1e2;fontColor=#ffffff;strokeColor=light-dark(#006EAF,#000000);" vertex="1" parent="1">
          <mxGeometry x="1200" y="1220" width="100" height="40" as="geometry" />
        </mxCell>
        <mxCell id="huLHMLjECL3ZLrGT6dhq-88" style="edgeStyle=orthogonalEdgeStyle;rounded=0;orthogonalLoop=1;jettySize=auto;html=1;exitX=0.5;exitY=1;exitDx=0;exitDy=0;entryX=0.5;entryY=0;entryDx=0;entryDy=0;" edge="1" parent="1" source="huLHMLjECL3ZLrGT6dhq-30" target="huLHMLjECL3ZLrGT6dhq-83">
          <mxGeometry relative="1" as="geometry" />
        </mxCell>
        <mxCell id="huLHMLjECL3ZLrGT6dhq-125" style="edgeStyle=orthogonalEdgeStyle;rounded=0;orthogonalLoop=1;jettySize=auto;html=1;exitX=0;exitY=0.5;exitDx=0;exitDy=0;entryX=0;entryY=1;entryDx=0;entryDy=0;" edge="1" parent="1" source="huLHMLjECL3ZLrGT6dhq-30" target="huLHMLjECL3ZLrGT6dhq-121">
          <mxGeometry relative="1" as="geometry">
            <mxPoint x="-90" y="1520" as="targetPoint" />
          </mxGeometry>
        </mxCell>
        <mxCell id="huLHMLjECL3ZLrGT6dhq-30" value="Curso" style="whiteSpace=wrap;html=1;align=center;fillColor=#1ba1e2;fontColor=#ffffff;strokeColor=light-dark(#000000,#000000);fontStyle=1;gradientColor=none;strokeWidth=5;" vertex="1" parent="1">
          <mxGeometry x="785" y="1600" width="100" height="40" as="geometry" />
        </mxCell>
        <mxCell id="huLHMLjECL3ZLrGT6dhq-31" value="Compor" style="shape=rhombus;perimeter=rhombusPerimeter;whiteSpace=wrap;html=1;align=center;fillColor=#60a917;fontColor=#ffffff;strokeColor=light-dark(#2D7600,#000000);strokeWidth=5;" vertex="1" parent="1">
          <mxGeometry x="860" y="1470" width="120" height="60" as="geometry" />
        </mxCell>
        <mxCell id="huLHMLjECL3ZLrGT6dhq-34" style="edgeStyle=orthogonalEdgeStyle;rounded=0;orthogonalLoop=1;jettySize=auto;html=1;exitX=0;exitY=0.5;exitDx=0;exitDy=0;entryX=1;entryY=0.5;entryDx=0;entryDy=0;" edge="1" parent="1" source="huLHMLjECL3ZLrGT6dhq-32" target="huLHMLjECL3ZLrGT6dhq-33">
          <mxGeometry relative="1" as="geometry" />
        </mxCell>
        <mxCell id="huLHMLjECL3ZLrGT6dhq-91" style="edgeStyle=orthogonalEdgeStyle;rounded=0;orthogonalLoop=1;jettySize=auto;html=1;exitX=1;exitY=0.75;exitDx=0;exitDy=0;entryX=0;entryY=0.5;entryDx=0;entryDy=0;" edge="1" parent="1" source="huLHMLjECL3ZLrGT6dhq-32" target="huLHMLjECL3ZLrGT6dhq-23">
          <mxGeometry relative="1" as="geometry" />
        </mxCell>
        <mxCell id="huLHMLjECL3ZLrGT6dhq-94" style="edgeStyle=orthogonalEdgeStyle;rounded=0;orthogonalLoop=1;jettySize=auto;html=1;exitX=1;exitY=1;exitDx=0;exitDy=0;entryX=0.5;entryY=0;entryDx=0;entryDy=0;" edge="1" parent="1" source="huLHMLjECL3ZLrGT6dhq-32" target="huLHMLjECL3ZLrGT6dhq-92">
          <mxGeometry relative="1" as="geometry" />
        </mxCell>
        <mxCell id="huLHMLjECL3ZLrGT6dhq-113" style="edgeStyle=orthogonalEdgeStyle;rounded=0;orthogonalLoop=1;jettySize=auto;html=1;exitX=0;exitY=1;exitDx=0;exitDy=0;entryX=1;entryY=0.5;entryDx=0;entryDy=0;" edge="1" parent="1" source="huLHMLjECL3ZLrGT6dhq-32" target="huLHMLjECL3ZLrGT6dhq-112">
          <mxGeometry relative="1" as="geometry" />
        </mxCell>
        <mxCell id="huLHMLjECL3ZLrGT6dhq-120" style="edgeStyle=orthogonalEdgeStyle;rounded=0;orthogonalLoop=1;jettySize=auto;html=1;exitX=0.25;exitY=1;exitDx=0;exitDy=0;entryX=1;entryY=1;entryDx=0;entryDy=0;" edge="1" parent="1" source="huLHMLjECL3ZLrGT6dhq-32" target="huLHMLjECL3ZLrGT6dhq-121">
          <mxGeometry relative="1" as="geometry">
            <mxPoint x="530" y="1490" as="targetPoint" />
            <Array as="points">
              <mxPoint x="810" y="1470" />
              <mxPoint x="-110" y="1470" />
            </Array>
          </mxGeometry>
        </mxCell>
        <mxCell id="huLHMLjECL3ZLrGT6dhq-127" style="edgeStyle=orthogonalEdgeStyle;rounded=0;orthogonalLoop=1;jettySize=auto;html=1;exitX=0.75;exitY=1;exitDx=0;exitDy=0;entryX=0;entryY=0;entryDx=0;entryDy=0;" edge="1" parent="1" source="huLHMLjECL3ZLrGT6dhq-32" target="huLHMLjECL3ZLrGT6dhq-31">
          <mxGeometry relative="1" as="geometry" />
        </mxCell>
        <mxCell id="huLHMLjECL3ZLrGT6dhq-32" value="Disciplina" style="whiteSpace=wrap;html=1;align=center;fillColor=#1ba1e2;fontColor=#ffffff;strokeColor=light-dark(#000000,#000000);fontStyle=1;gradientColor=none;strokeWidth=5;" vertex="1" parent="1">
          <mxGeometry x="785" y="1170" width="100" height="40" as="geometry" />
        </mxCell>
        <mxCell id="huLHMLjECL3ZLrGT6dhq-111" style="edgeStyle=orthogonalEdgeStyle;rounded=0;orthogonalLoop=1;jettySize=auto;html=1;exitX=1;exitY=0;exitDx=0;exitDy=0;entryX=0.5;entryY=1;entryDx=0;entryDy=0;" edge="1" parent="1" source="huLHMLjECL3ZLrGT6dhq-33" target="huLHMLjECL3ZLrGT6dhq-106">
          <mxGeometry relative="1" as="geometry" />
        </mxCell>
        <mxCell id="huLHMLjECL3ZLrGT6dhq-33" value="AvaliaÃ§Ã£o" style="shape=rhombus;perimeter=rhombusPerimeter;whiteSpace=wrap;html=1;align=center;fillColor=#60a917;fontColor=#ffffff;strokeColor=light-dark(#2D7600,#000000);strokeWidth=5;" vertex="1" parent="1">
          <mxGeometry x="414" y="1160" width="120" height="60" as="geometry" />
        </mxCell>
        <mxCell id="huLHMLjECL3ZLrGT6dhq-108" style="edgeStyle=orthogonalEdgeStyle;rounded=0;orthogonalLoop=1;jettySize=auto;html=1;exitX=0;exitY=0;exitDx=0;exitDy=0;entryX=0;entryY=1;entryDx=0;entryDy=0;" edge="1" parent="1" source="huLHMLjECL3ZLrGT6dhq-37" target="huLHMLjECL3ZLrGT6dhq-65">
          <mxGeometry relative="1" as="geometry" />
        </mxCell>
        <mxCell id="huLHMLjECL3ZLrGT6dhq-37" value="" style="swimlane;startSize=0;strokeColor=light-dark(#000000,#000000);strokeWidth=5;" vertex="1" parent="1">
          <mxGeometry x="400" y="1150" width="150" height="80" as="geometry" />
        </mxCell>
        <mxCell id="huLHMLjECL3ZLrGT6dhq-39" value="CPF" style="ellipse;whiteSpace=wrap;html=1;align=center;fontStyle=4;" vertex="1" parent="1">
          <mxGeometry x="210" y="10" width="100" height="40" as="geometry" />
        </mxCell>
        <mxCell id="huLHMLjECL3ZLrGT6dhq-40" value="&lt;span style=&quot;border-bottom: 1px dotted&quot;&gt;Nome&lt;/span&gt;" style="ellipse;whiteSpace=wrap;html=1;align=center;" vertex="1" parent="1">
          <mxGeometry x="210" y="50" width="100" height="40" as="geometry" />
        </mxCell>
        <mxCell id="huLHMLjECL3ZLrGT6dhq-41" value="&lt;span style=&quot;border-bottom: 1px dotted&quot;&gt;Sobrenome&lt;/span&gt;" style="ellipse;whiteSpace=wrap;html=1;align=center;" vertex="1" parent="1">
          <mxGeometry x="210" y="90" width="100" height="40" as="geometry" />
        </mxCell>
        <mxCell id="huLHMLjECL3ZLrGT6dhq-42" value="&lt;span style=&quot;border-bottom: 1px dotted&quot;&gt;NÃºmero Telefone&lt;/span&gt;" style="ellipse;whiteSpace=wrap;html=1;align=center;" vertex="1" parent="1">
          <mxGeometry x="210" y="130" width="100" height="40" as="geometry" />
        </mxCell>
        <mxCell id="huLHMLjECL3ZLrGT6dhq-43" value="EndereÃ§o" style="ellipse;whiteSpace=wrap;html=1;align=center;" vertex="1" parent="1">
          <mxGeometry x="210" y="170" width="100" height="40" as="geometry" />
        </mxCell>
        <mxCell id="huLHMLjECL3ZLrGT6dhq-45" value="Email" style="ellipse;whiteSpace=wrap;html=1;align=center;" vertex="1" parent="1">
          <mxGeometry x="210" y="210" width="100" height="40" as="geometry" />
        </mxCell>
        <mxCell id="huLHMLjECL3ZLrGT6dhq-46" value="Senha" style="ellipse;whiteSpace=wrap;html=1;align=center;" vertex="1" parent="1">
          <mxGeometry x="210" y="250" width="100" height="40" as="geometry" />
        </mxCell>
        <mxCell id="huLHMLjECL3ZLrGT6dhq-48" value="Data Nascimento" style="ellipse;whiteSpace=wrap;html=1;align=center;" vertex="1" parent="1">
          <mxGeometry x="210" y="290" width="100" height="40" as="geometry" />
        </mxCell>
        <mxCell id="huLHMLjECL3ZLrGT6dhq-49" value="Sexo" style="ellipse;whiteSpace=wrap;html=1;align=center;" vertex="1" parent="1">
          <mxGeometry x="210" y="330" width="100" height="40" as="geometry" />
        </mxCell>
        <mxCell id="huLHMLjECL3ZLrGT6dhq-50" value="Registro Aluno" style="ellipse;whiteSpace=wrap;html=1;align=center;fontStyle=4;" vertex="1" parent="1">
          <mxGeometry x="170" y="570" width="100" height="40" as="geometry" />
        </mxCell>
        <mxCell id="huLHMLjECL3ZLrGT6dhq-52" value="TitulaÃ§Ã£o" style="ellipse;whiteSpace=wrap;html=1;align=center;" vertex="1" parent="1">
          <mxGeometry x="895" y="570" width="100" height="40" as="geometry" />
        </mxCell>
        <mxCell id="huLHMLjECL3ZLrGT6dhq-55" value="Ãrea Especialidade" style="ellipse;whiteSpace=wrap;html=1;align=center;" vertex="1" parent="1">
          <mxGeometry x="895" y="610" width="100" height="40" as="geometry" />
        </mxCell>
        <mxCell id="huLHMLjECL3ZLrGT6dhq-65" value="ID AvaliaÃ§Ã£o" style="ellipse;whiteSpace=wrap;html=1;align=center;fontStyle=4;" vertex="1" parent="1">
          <mxGeometry x="355" y="1090" width="100" height="40" as="geometry" />
        </mxCell>
        <mxCell id="huLHMLjECL3ZLrGT6dhq-68" value="Nome Cidade" style="ellipse;whiteSpace=wrap;html=1;align=center;" vertex="1" parent="1">
          <mxGeometry x="169" y="780" width="100" height="40" as="geometry" />
        </mxCell>
        <mxCell id="huLHMLjECL3ZLrGT6dhq-69" value="Sigla Estado" style="ellipse;whiteSpace=wrap;html=1;align=center;" vertex="1" parent="1">
          <mxGeometry x="169" y="820" width="100" height="40" as="geometry" />
        </mxCell>
        <mxCell id="huLHMLjECL3ZLrGT6dhq-70" value="Sigla PaÃ­s" style="ellipse;whiteSpace=wrap;html=1;align=center;" vertex="1" parent="1">
          <mxGeometry x="169" y="860" width="100" height="40" as="geometry" />
        </mxCell>
        <mxCell id="huLHMLjECL3ZLrGT6dhq-71" value="NÃºmero do PrÃ©dio" style="ellipse;whiteSpace=wrap;html=1;align=center;" vertex="1" parent="1">
          <mxGeometry x="169" y="900" width="100" height="40" as="geometry" />
        </mxCell>
        <mxCell id="huLHMLjECL3ZLrGT6dhq-74" value="Nome" style="ellipse;whiteSpace=wrap;html=1;align=center;" vertex="1" parent="1">
          <mxGeometry x="1270" y="650" width="100" height="40" as="geometry" />
        </mxCell>
        <mxCell id="huLHMLjECL3ZLrGT6dhq-76" value="CÃ³digo" style="ellipse;whiteSpace=wrap;html=1;align=center;fontStyle=4;" vertex="1" parent="1">
          <mxGeometry x="1270" y="610" width="100" height="40" as="geometry" />
        </mxCell>
        <mxCell id="huLHMLjECL3ZLrGT6dhq-78" value="Mensagem" style="ellipse;whiteSpace=wrap;html=1;align=center;" vertex="1" parent="1">
          <mxGeometry x="355" y="930" width="100" height="40" as="geometry" />
        </mxCell>
        <mxCell id="huLHMLjECL3ZLrGT6dhq-79" value="ID Destino" style="ellipse;whiteSpace=wrap;html=1;align=center;fontStyle=4;" vertex="1" parent="1">
          <mxGeometry x="355" y="810" width="100" height="40" as="geometry" />
        </mxCell>
        <mxCell id="huLHMLjECL3ZLrGT6dhq-80" value="ID Remetente" style="ellipse;whiteSpace=wrap;html=1;align=center;fontStyle=4;" vertex="1" parent="1">
          <mxGeometry x="355" y="850" width="100" height="40" as="geometry" />
        </mxCell>
        <mxCell id="huLHMLjECL3ZLrGT6dhq-81" value="Data Envio" style="ellipse;whiteSpace=wrap;html=1;align=center;fontStyle=4;" vertex="1" parent="1">
          <mxGeometry x="355" y="890" width="100" height="40" as="geometry" />
        </mxCell>
        <mxCell id="huLHMLjECL3ZLrGT6dhq-83" value="CÃ³digo" style="ellipse;whiteSpace=wrap;html=1;align=center;fontStyle=4;" vertex="1" parent="1">
          <mxGeometry x="785" y="1700" width="100" height="40" as="geometry" />
        </mxCell>
        <mxCell id="huLHMLjECL3ZLrGT6dhq-84" value="Nome" style="ellipse;whiteSpace=wrap;html=1;align=center;" vertex="1" parent="1">
          <mxGeometry x="785" y="1740" width="100" height="40" as="geometry" />
        </mxCell>
        <mxCell id="huLHMLjECL3ZLrGT6dhq-85" value="ClassificaÃ§Ã£o" style="ellipse;whiteSpace=wrap;html=1;align=center;" vertex="1" parent="1">
          <mxGeometry x="785" y="1780" width="100" height="40" as="geometry" />
        </mxCell>
        <mxCell id="huLHMLjECL3ZLrGT6dhq-86" value="Carga HorÃ¡ria" style="ellipse;whiteSpace=wrap;html=1;align=center;" vertex="1" parent="1">
          <mxGeometry x="785" y="1820" width="100" height="40" as="geometry" />
        </mxCell>
        <mxCell id="huLHMLjECL3ZLrGT6dhq-87" value="NÃºmero de Vagas" style="ellipse;whiteSpace=wrap;html=1;align=center;" vertex="1" parent="1">
          <mxGeometry x="785" y="1860" width="100" height="40" as="geometry" />
        </mxCell>
        <mxCell id="huLHMLjECL3ZLrGT6dhq-92" value="QTD Aulas Semanais" style="ellipse;whiteSpace=wrap;html=1;align=center;" vertex="1" parent="1">
          <mxGeometry x="880" y="1260" width="100" height="40" as="geometry" />
        </mxCell>
        <mxCell id="huLHMLjECL3ZLrGT6dhq-93" value="Material DidÃ¡tico BÃ¡sico" style="ellipse;whiteSpace=wrap;html=1;align=center;dashed=1;" vertex="1" parent="1">
          <mxGeometry x="880" y="1300" width="100" height="40" as="geometry" />
        </mxCell>
        <mxCell id="huLHMLjECL3ZLrGT6dhq-102" value="ComentÃ¡rio" style="ellipse;whiteSpace=wrap;html=1;align=center;" vertex="1" parent="1">
          <mxGeometry x="494" y="930" width="100" height="40" as="geometry" />
        </mxCell>
        <mxCell id="huLHMLjECL3ZLrGT6dhq-103" value="Rating Professor" style="ellipse;whiteSpace=wrap;html=1;align=center;" vertex="1" parent="1">
          <mxGeometry x="494" y="970" width="100" height="40" as="geometry" />
        </mxCell>
        <mxCell id="huLHMLjECL3ZLrGT6dhq-104" value="Rating Material" style="ellipse;whiteSpace=wrap;html=1;align=center;" vertex="1" parent="1">
          <mxGeometry x="494" y="1010" width="100" height="40" as="geometry" />
        </mxCell>
        <mxCell id="huLHMLjECL3ZLrGT6dhq-105" value="Rating Infraestrutura" style="ellipse;whiteSpace=wrap;html=1;align=center;" vertex="1" parent="1">
          <mxGeometry x="494" y="1050" width="100" height="40" as="geometry" />
        </mxCell>
        <mxCell id="huLHMLjECL3ZLrGT6dhq-106" value="Rating RelevÃ¢ncia" style="ellipse;whiteSpace=wrap;html=1;align=center;" vertex="1" parent="1">
          <mxGeometry x="494" y="1090" width="100" height="40" as="geometry" />
        </mxCell>
        <mxCell id="huLHMLjECL3ZLrGT6dhq-118" style="edgeStyle=orthogonalEdgeStyle;rounded=0;orthogonalLoop=1;jettySize=auto;html=1;exitX=0;exitY=0.5;exitDx=0;exitDy=0;entryX=1;entryY=0.5;entryDx=0;entryDy=0;" edge="1" parent="1" source="huLHMLjECL3ZLrGT6dhq-112" target="huLHMLjECL3ZLrGT6dhq-115">
          <mxGeometry relative="1" as="geometry" />
        </mxCell>
        <mxCell id="huLHMLjECL3ZLrGT6dhq-112" value="MatrÃ­cula" style="shape=rhombus;perimeter=rhombusPerimeter;whiteSpace=wrap;html=1;align=center;fillColor=#60a917;fontColor=#ffffff;strokeColor=light-dark(#2D7600,#000000);strokeWidth=5;" vertex="1" parent="1">
          <mxGeometry x="260" y="1280" width="120" height="60" as="geometry" />
        </mxCell>
        <mxCell id="huLHMLjECL3ZLrGT6dhq-115" value="Nota" style="ellipse;whiteSpace=wrap;html=1;align=center;" vertex="1" parent="1">
          <mxGeometry x="110" y="1290" width="100" height="40" as="geometry" />
        </mxCell>
        <mxCell id="huLHMLjECL3ZLrGT6dhq-116" value="FrequÃªncia" style="ellipse;whiteSpace=wrap;html=1;align=center;" vertex="1" parent="1">
          <mxGeometry x="110" y="1330" width="100" height="40" as="geometry" />
        </mxCell>
        <mxCell id="huLHMLjECL3ZLrGT6dhq-117" value="Status" style="ellipse;whiteSpace=wrap;html=1;align=center;" vertex="1" parent="1">
          <mxGeometry x="110" y="1370" width="100" height="40" as="geometry" />
        </mxCell>
        <mxCell id="huLHMLjECL3ZLrGT6dhq-119" value="Bolsa" style="ellipse;whiteSpace=wrap;html=1;align=center;" vertex="1" parent="1">
          <mxGeometry x="170" y="610" width="100" height="40" as="geometry" />
        </mxCell>
        <mxCell id="huLHMLjECL3ZLrGT6dhq-122" style="edgeStyle=orthogonalEdgeStyle;rounded=0;orthogonalLoop=1;jettySize=auto;html=1;exitX=1;exitY=0.5;exitDx=0;exitDy=0;entryX=0;entryY=0.5;entryDx=0;entryDy=0;" edge="1" parent="1" source="huLHMLjECL3ZLrGT6dhq-121" target="huLHMLjECL3ZLrGT6dhq-14">
          <mxGeometry relative="1" as="geometry" />
        </mxCell>
        <mxCell id="huLHMLjECL3ZLrGT6dhq-121" value="Associa" style="shape=rhombus;perimeter=rhombusPerimeter;whiteSpace=wrap;html=1;align=center;fillColor=#60a917;fontColor=#ffffff;strokeColor=light-dark(#2D7600,#000000);strokeWidth=5;" vertex="1" parent="1">
          <mxGeometry x="-200" y="770" width="120" height="60" as="geometry" />
        </mxCell>
      </root>
    </mxGraphModel>
  </diagram>
</mxfile>
